<svg id="FB" xmlns="http://www.w3.org/2000/svg" width="39.401" height="39.347" viewBox="0 0 39.401 39.347">
  <path id="XMLID_1421_" d="M22,40.447h0A19.673,19.673,0,0,1,2.3,20.8h0A19.72,19.72,0,0,1,22,1.1h0A19.72,19.72,0,0,1,41.7,20.8h0A19.673,19.673,0,0,1,22,40.447Z" transform="translate(-2.3 -1.1)" fill="#fff"/>
  <path id="XMLID_1420_" d="M30.266,38.669h4V26.877h2.8l.276-3.931H34.262V20.685c0-.915.138-1.292.918-1.292h2.158V15.3H34.583c-2.985,0-4.317,1.562-4.317,4.469v3.123H28.2v3.985h2.066V38.669Z" transform="translate(-13.187 -6.978)" fill="#55469a"/>
</svg>
