<svg id="IG" xmlns="http://www.w3.org/2000/svg" width="39.778" height="39.723" viewBox="0 0 39.778 39.723">
  <g id="IG_ICON" data-name="IG ICON">
    <path id="XMLID_1418_" d="M22.261,40.823h0A19.828,19.828,0,0,1,2.4,20.989h0A19.922,19.922,0,0,1,22.317,1.1h0A19.91,19.91,0,0,1,42.178,20.989h0A19.875,19.875,0,0,1,22.261,40.823Z" transform="translate(-2.4 -1.1)" fill="#fff"/>
    <g id="XMLID_1347_" transform="translate(7.452 7.262)">
      <path id="XMLID_1352_" d="M30.763,19.541c3.3,0,3.673,0,4.918.062a6.7,6.7,0,0,1,2.3.436,4.381,4.381,0,0,1,1.432.934,3.815,3.815,0,0,1,.934,1.432,6.363,6.363,0,0,1,.436,2.3c.062,1.307.062,1.681.062,4.918,0,3.3,0,3.673-.062,4.918a6.7,6.7,0,0,1-.436,2.3,4.382,4.382,0,0,1-.934,1.432,3.815,3.815,0,0,1-1.432.934,6.363,6.363,0,0,1-2.3.436c-1.307.062-1.681.062-4.918.062-3.3,0-3.673,0-4.918-.062a6.7,6.7,0,0,1-2.3-.436,4.382,4.382,0,0,1-1.432-.934,3.815,3.815,0,0,1-.934-1.432,6.363,6.363,0,0,1-.436-2.3c-.062-1.307-.062-1.681-.062-4.918,0-3.3,0-3.673.062-4.918a6.7,6.7,0,0,1,.436-2.3,4.381,4.381,0,0,1,.934-1.432,3.815,3.815,0,0,1,1.432-.934,6.363,6.363,0,0,1,2.3-.436c1.307-.062,1.681-.062,4.918-.062m0-2.241c-3.3,0-3.735,0-5.042.062a9.109,9.109,0,0,0-2.988.56,6.434,6.434,0,0,0-3.61,3.61,9.109,9.109,0,0,0-.56,2.988c-.062,1.307-.062,1.743-.062,5.042s0,3.735.062,5.042a9.109,9.109,0,0,0,.56,2.988,6.434,6.434,0,0,0,3.61,3.61,9.11,9.11,0,0,0,2.988.56c1.307.062,1.743.062,5.042.062s3.735,0,5.042-.062a9.109,9.109,0,0,0,2.988-.56,6.433,6.433,0,0,0,3.61-3.61,9.109,9.109,0,0,0,.56-2.988c.062-1.307.062-1.743.062-5.042s0-3.735-.062-5.042a9.109,9.109,0,0,0-.56-2.988,6.433,6.433,0,0,0-3.61-3.61,9.109,9.109,0,0,0-2.988-.56c-1.245-.062-1.681-.062-5.042-.062" transform="translate(-18.5 -17.3)" fill="#7a5294"/>
      <path id="XMLID_1349_" d="M34.387,26.9a6.287,6.287,0,1,0,6.287,6.287A6.27,6.27,0,0,0,34.387,26.9m0,10.333A4.108,4.108,0,1,1,38.5,33.125a4.1,4.1,0,0,1-4.108,4.108" transform="translate(-22.124 -20.924)" fill="#7a5294"/>
      <path id="XMLID_1348_" d="M49.288,25.594A1.494,1.494,0,1,1,47.794,24.1a1.515,1.515,0,0,1,1.494,1.494" transform="translate(-28.995 -19.867)" fill="#7a5294"/>
    </g>
  </g>
</svg>
